<svg id="Layer_1" data-name="Layer 1" xmlns="http://www.w3.org/2000/svg" viewBox="0 0 1200 400"><defs><style>.cls-1{fill:#282d39;}.cls-2{fill:#fff;}.cls-3{fill:#2ebed8;}</style></defs><path class="cls-1" d="M240.51,134.1l-2.29.27q-18,2-31,19.45l-1.29,1.7-.1-4.13c-.13-4.68-.34-5.8-1.54-8.18a14.17,14.17,0,0,0-8.44-7.28,15.24,15.24,0,0,0-10,.3,14.58,14.58,0,0,0-8.43,9.81c-.32,1.2-.34,3-.34,53.47v52.24l.4,1.39a14.53,14.53,0,0,0,27.08,2.17c1.32-2.85,1.22.12,1.32-36.1.13-35.93,0-33.33,1.25-38.22,2.45-9.88,8.63-16.85,17.35-19.54a24.24,24.24,0,0,1,8.44-1.14,24,24,0,0,1,11.65,2.44c7.36,3.57,11.8,10.61,13.4,21.2.27,1.84.3,5,.41,35,.1,36.16,0,33.42,1.09,35.93a15,15,0,0,0,6,6.76c7.76,4.34,17.51,1.16,20.71-6.77,1.11-2.78,1,.17,1.13-35.74s0-33.67,1.25-38.49a27.38,27.38,0,0,1,7.73-13.81,25.16,25.16,0,0,1,12.78-6.2,41.76,41.76,0,0,1,10.3,0c10.46,1.81,17.11,8.7,19.45,20.17.91,4.47.86,2.9,1,38.35l.1,33,.59,1.68a14,14,0,0,0,3.08,5.2,14.27,14.27,0,0,0,9.9,4.59,14,14,0,0,0,13.76-7.95c1.51-3.25,1.37.6,1.44-39.05,0-35.58,0-39.46-.58-44a53.21,53.21,0,0,0-4.85-16.67,37.31,37.31,0,0,0-21.47-19.14,55.85,55.85,0,0,0-30.49-1.16,50.12,50.12,0,0,0-18.5,9.25,89,89,0,0,0-9.16,9.25,16.51,16.51,0,0,1-1.59,1.9,2.62,2.62,0,0,1-.49-.79,41.35,41.35,0,0,0-7-9.51c-6.12-6.13-13.55-9.77-22.9-11.17A79.39,79.39,0,0,0,240.51,134.1Z"/><path class="cls-2" d="M324.43,134a52.67,52.67,0,0,1,17.21,2.74,37.35,37.35,0,0,1,21.48,19.14A53.47,53.47,0,0,1,368,172.55c.58,4.56.63,8.44.58,44-.07,39.65.07,35.8-1.44,39.05a14,14,0,0,1-12.87,8c-.3,0-.59,0-.89,0a14.27,14.27,0,0,1-9.9-4.59,14,14,0,0,1-3.08-5.2l-.59-1.68-.1-33c-.11-35.45-.05-33.88-1-38.35-2.34-11.47-9-18.36-19.45-20.17a32.49,32.49,0,0,0-5-.31,34,34,0,0,0-5.27.33,25.16,25.16,0,0,0-12.78,6.2,27.38,27.38,0,0,0-7.73,13.81c-1.21,4.82-1.13,2.46-1.25,38.49s0,33-1.13,35.74a14.17,14.17,0,0,1-13.28,8.72,14.32,14.32,0,0,1-13.39-8.71c-1.07-2.51-1,.23-1.09-35.93-.11-30-.14-33.16-.41-35-1.6-10.59-6-17.63-13.4-21.2a30.09,30.09,0,0,0-20.08-1.3c-8.72,2.69-14.91,9.66-17.36,19.54-1.21,4.89-1.12,2.29-1.25,38.22-.1,36.22,0,33.25-1.32,36.1a14.29,14.29,0,0,1-13.15,8.28,15.55,15.55,0,0,1-2.7-.23,14.35,14.35,0,0,1-11.22-10.22l-.41-1.39V199.51c0-50.44,0-52.27.34-53.47a14.6,14.6,0,0,1,8.43-9.81,14.89,14.89,0,0,1,5.47-1,14.67,14.67,0,0,1,4.57.71,14.17,14.17,0,0,1,8.44,7.28c1.2,2.38,1.41,3.5,1.54,8.18l.1,4.13,1.29-1.7q13.09-17.44,31-19.45l2.29-.27c.39,0,1.08-.06,1.94-.06a85.6,85.6,0,0,1,9.07.47c9.35,1.4,16.78,5,22.9,11.17a41.35,41.35,0,0,1,7,9.51,2.62,2.62,0,0,0,.49.79,16.51,16.51,0,0,0,1.59-1.9,89,89,0,0,1,9.16-9.25,50.12,50.12,0,0,1,18.5-9.25A54.7,54.7,0,0,1,324.43,134m0-12h0a66.34,66.34,0,0,0-16.21,1.94,62.29,62.29,0,0,0-23,11.5c-.6.48-1.34,1.12-2.16,1.87l-.09-.1c-8-8-17.7-12.78-29.63-14.57a94.82,94.82,0,0,0-10.85-.6,31.38,31.38,0,0,0-3.26.13l-1.49.17-.86.11a51.74,51.74,0,0,0-25.35,10.08,26.21,26.21,0,0,0-11.89-8,26.61,26.61,0,0,0-8.36-1.32,27,27,0,0,0-9.94,1.87A26.48,26.48,0,0,0,165.73,143c-.73,2.77-.73,2.77-.73,56.53v54l.48,1.64.4,1.39a26.49,26.49,0,0,0,20.68,18.68,27.52,27.52,0,0,0,4.77.41,26.16,26.16,0,0,0,24-15.25l.1-.2c2.23-4.45,2.23-4.45,2.31-34l0-6.93,0-6.26c.09-26,.12-26.13.65-28.21.07-.28.15-.57.23-.89,1.44-5.84,4.55-9.52,9.24-11a12.59,12.59,0,0,1,4.9-.61c3.33,0,4.61.36,6.39,1.23,1.47.72,5.32,2.58,6.79,12.12.16,1.38.2,11.83.28,33.33l0,7c.08,29.32.08,29.32,2,33.43l.07.14a26.9,26.9,0,0,0,11.09,12.49,27.34,27.34,0,0,0,13.33,3.5,26.11,26.11,0,0,0,24.41-16.23l.11-.26c1.79-4.14,1.79-4.14,1.87-33.18l0-6.76,0-6.33c.09-26.23.12-26.36.66-28.47l.21-.78a15.46,15.46,0,0,1,4.3-8,13.26,13.26,0,0,1,6.64-3.15,30.22,30.22,0,0,1,3.2-.14,26.9,26.9,0,0,1,3,.13c3.87.67,8.05,2.47,9.74,10.75l.1.5c.51,2.45.53,2.55.61,30.35l0,5.13.1,33v2l.66,1.9.58,1.67a26.34,26.34,0,0,0,23.62,17.83c.55,0,1.07.05,1.59.05A25.92,25.92,0,0,0,378,260.74v-.05l.13-.25c2.38-4.6,2.38-4.6,2.43-34.92V216.6c.06-36.82,0-40.22-.68-45.57V171a65.35,65.35,0,0,0-6-20.36,49.62,49.62,0,0,0-28.29-25.2A64.39,64.39,0,0,0,324.43,122Z"/><path class="cls-1" d="M437.46,134.1l-2.64.27c-18.34,1.72-35.27,12.59-45.05,28.91a84.23,84.23,0,0,0-5.34,11.05,72.74,72.74,0,0,0-4.24,19.52,109.82,109.82,0,0,0,.28,14.9c2.54,20.61,12.83,37.15,29.37,47.17a66.33,66.33,0,0,0,29,9.13,116.38,116.38,0,0,0,15.2-.28,62.92,62.92,0,0,0,33.2-13.83c3.62-2.88,5.1-4.78,6-7.63a11.81,11.81,0,0,0-5.56-14,13.76,13.76,0,0,0-4.59-1.18c-3.29-.21-5.62.61-8.8,3.11A45.79,45.79,0,0,1,452,241.2a61.94,61.94,0,0,1-11,.28c-10.79-1.11-19.41-6-25.4-14.28a48.06,48.06,0,0,1-4.86-9.76,55.59,55.59,0,0,1-1.71-6.88l-.12-.76,40.67,0,40.68-.05,1.29-.41a13.48,13.48,0,0,0,9.23-8.85l.58-1.65v-4a48.23,48.23,0,0,0-.9-10.28,63.58,63.58,0,0,0-17.25-34.05q-13.6-13.59-33.73-16A114.56,114.56,0,0,0,437.46,134.1Zm7.06,23.64a28.67,28.67,0,0,1,10.64,3c8.26,4.06,14.11,11.94,16.83,22.69a55,55,0,0,1,1.23,6.81v.4h-64.6l.32-1.81c2.29-13.4,9.26-23.67,19.27-28.37A31.46,31.46,0,0,1,444.52,157.74Z"/><path class="cls-2" d="M439.44,134c3,0,8.28.19,10,.4q20.08,2.4,33.73,16a63.58,63.58,0,0,1,17.25,34.05,48.23,48.23,0,0,1,.9,10.28v4l-.58,1.65a13.48,13.48,0,0,1-9.24,8.85l-1.28.41-40.68.05-40.67,0,.12.76a53.85,53.85,0,0,0,1.71,6.88,48.06,48.06,0,0,0,4.86,9.76c6,8.32,14.61,13.17,25.4,14.28.86.09,2.12.13,3.51.13a57.81,57.81,0,0,0,7.49-.41,45.79,45.79,0,0,0,22.32-9.94c2.87-2.25,5-3.14,7.86-3.14l.94,0a13.53,13.53,0,0,1,4.59,1.18,11.81,11.81,0,0,1,5.56,14c-.92,2.85-2.39,4.75-6,7.63A62.92,62.92,0,0,1,454,264.77c-2.07.26-6.5.41-10.25.41-2,0-3.8,0-5-.13a66.33,66.33,0,0,1-29-9.13c-16.54-10-26.83-26.56-29.37-47.17a108.22,108.22,0,0,1-.28-14.9,72.74,72.74,0,0,1,4.24-19.52,84.23,84.23,0,0,1,5.34-11.05c9.78-16.32,26.71-27.19,45.05-28.91l2.64-.27c.34,0,1.05-.06,2-.06m-30.82,56.59h64.6v-.4a55,55,0,0,0-1.23-6.81c-2.72-10.75-8.57-18.63-16.83-22.69a28.67,28.67,0,0,0-10.64-3c-1-.1-2.11-.16-3.17-.16a31.1,31.1,0,0,0-13.14,2.87c-10,4.7-17,15-19.27,28.37l-.32,1.81M439.44,122a30.48,30.48,0,0,0-3.29.13l-2.46.25c-22.18,2.08-42.45,15-54.21,34.7a96.06,96.06,0,0,0-6.29,13,84.46,84.46,0,0,0-5,22.76,120.23,120.23,0,0,0,.33,17.35c3,24.18,15.43,44,35.06,55.94A77.77,77.77,0,0,0,437.82,277c1.49.12,3.48.17,5.95.17a116.38,116.38,0,0,0,11.74-.5,74.61,74.61,0,0,0,39.23-16.38c4.54-3.63,8-7.29,9.92-13.32a24,24,0,0,0-8.59-26.54,25.51,25.51,0,0,0,16-16l.58-1.64.68-1.93v-6.09a59.78,59.78,0,0,0-1.08-12.35,75.51,75.51,0,0,0-20.6-40.48c-11-11-24.7-17.5-40.78-19.42-2.49-.29-8.42-.48-11.42-.48Zm-14.16,56.59a19.6,19.6,0,0,1,8-7.32,19.08,19.08,0,0,1,8-1.73c.66,0,1.33,0,2,.1a16.93,16.93,0,0,1,6.54,1.82,17.71,17.71,0,0,1,7.4,7.13h-32Zm1.27,43.16,23,0,17.41,0-.08.06a34,34,0,0,1-16.8,7.54,51.33,51.33,0,0,1-5.61.26c-1.62,0-2.25-.06-2.25-.06-6.66-.69-11.8-3.23-15.67-7.76Z"/><path class="cls-1" d="M648.85,134.63c-10.16.86-17.56,2.85-25.51,6.82a63.66,63.66,0,0,0-16.57,11.81,62.5,62.5,0,0,0-12.88,17.5,66,66,0,0,0-6.73,22.77,102.11,102.11,0,0,0,0,13.55,66.16,66.16,0,0,0,44.27,55.46A62.07,62.07,0,0,0,653,266a55.57,55.57,0,0,0,12.51-1.16,61.31,61.31,0,0,0,16.21-5.52,60.45,60.45,0,0,0,16.87-11.88c3.24-3.15,2.93-2.76,20.91-24.53,10.33-12.53,15-18.26,15.33-19a8.3,8.3,0,0,0,0-7.17c-.38-.81-4.31-5.72-15.16-19-8.05-9.81-14.87-18-15.14-18.29s-1.16-1.25-2-2.22a84.38,84.38,0,0,0-8.34-8.09A66.25,66.25,0,0,0,660.3,135,109.26,109.26,0,0,0,648.85,134.63Zm9.95,25.66a41.1,41.1,0,0,1,21.55,10.41c1.71,1.6,22,25.82,22.55,27a4.57,4.57,0,0,1,.47,2.65,4.27,4.27,0,0,1-.53,2.69c-.68,1.31-21.86,26.4-23.37,27.71a40.37,40.37,0,0,1-28.06,10,38.1,38.1,0,0,1-16.74-4.26,39.21,39.21,0,0,1-11-8.11A40.35,40.35,0,0,1,621,175.15a44.59,44.59,0,0,1,10.5-9.3,40.59,40.59,0,0,1,15.87-5.63l2.12-.26A72.15,72.15,0,0,1,658.8,160.29Z"/><path class="cls-2" d="M650.85,134.58c3,0,7.85.18,9.45.37a66.25,66.25,0,0,1,33.9,14.24,84.38,84.38,0,0,1,8.34,8.09c.85,1,1.75,2,2,2.22s7.09,8.48,15.14,18.29c10.85,13.23,14.78,18.14,15.16,19a8.3,8.3,0,0,1,0,7.17c-.35.74-5,6.47-15.33,19-18,21.77-17.67,21.38-20.91,24.53a60.45,60.45,0,0,1-16.87,11.88,61.31,61.31,0,0,1-16.21,5.52A55.57,55.57,0,0,1,653,266a62.3,62.3,0,0,1-21.56-3.46,66.16,66.16,0,0,1-44.27-55.46,102.11,102.11,0,0,1,0-13.55,66,66,0,0,1,6.73-22.77,62.5,62.5,0,0,1,12.88-17.5,63.66,63.66,0,0,1,16.57-11.81c7.95-4,15.35-6,25.51-6.82.4,0,1.12,0,2,0m2,106.15a40.38,40.38,0,0,0,26.63-10c1.51-1.3,22.69-26.4,23.37-27.71a4.27,4.27,0,0,0,.53-2.69,4.57,4.57,0,0,0-.47-2.65c-.58-1.15-20.84-25.36-22.55-27a41.1,41.1,0,0,0-21.55-10.41c-1.29-.2-5.45-.38-7.82-.38a13.41,13.41,0,0,0-1.51.05l-2.12.26a40.75,40.75,0,0,0-15.87,5.63,44.59,44.59,0,0,0-10.5,9.3,40.35,40.35,0,0,0,2.66,53.19,39.21,39.21,0,0,0,11,8.11,38.1,38.1,0,0,0,16.74,4.26l1.43,0m-2-118.15c-1.32,0-2.26,0-3,.09-11.62,1-20.55,3.4-29.85,8a76.36,76.36,0,0,0-19.58,13.94,75.15,75.15,0,0,0-15.22,20.69,78,78,0,0,0-7.93,26.8,108.69,108.69,0,0,0,0,16.34,78.15,78.15,0,0,0,52.33,65.41A73.55,73.55,0,0,0,653,278a67.72,67.72,0,0,0,14.85-1.39A72.65,72.65,0,0,0,687,270.07,71.86,71.86,0,0,0,707,256l.15-.14c3.55-3.45,3.55-3.45,21.63-25.34,15.7-19,16-19.62,16.89-21.43a20.44,20.44,0,0,0,.07-17.52c-.93-1.93-1.17-2.44-16.74-21.42-15.1-18.41-15.62-18.9-16.23-19.46l.31.3c-.14-.15-.66-.71-1.44-1.61a95.93,95.93,0,0,0-9.91-9.59A78.18,78.18,0,0,0,661.77,123h-.06c-2.36-.28-7.92-.45-10.86-.45Zm-.23,49.33H651c2.07,0,5.17.15,6,.25a28.82,28.82,0,0,1,15,7.16c2,2.17,12.21,14.3,17.69,21-5.55,6.72-16.07,19.13-18.37,21.6a28.15,28.15,0,0,1-18.47,6.83c-.34,0-.68,0-1,0a26,26,0,0,1-11.72-3,27.26,27.26,0,0,1-7.89-5.8,28.35,28.35,0,0,1-1.73-37.44,32.44,32.44,0,0,1,7.31-6.44,29,29,0,0,1,11-3.92l1.84-.23Z"/><path class="cls-3" d="M739.29,135a13.27,13.27,0,0,0-6.59,3.62,12.51,12.51,0,0,0-3.7,7.83c-.42,3.43.51,6.72,3,10.3,1,1.53.93,1.39,19.25,23,8.23,9.71,14.39,17.12,14.67,17.66a5.84,5.84,0,0,1,.6,4.29,9.25,9.25,0,0,1-.72,1.9c-.25.41-7.54,9.11-16.24,19.37s-16.31,19.31-16.93,20.14a21.19,21.19,0,0,0-3.24,6.26,14.91,14.91,0,0,0,0,6.84,13,13,0,0,0,9,9.27,11.27,11.27,0,0,0,4,.4,12.52,12.52,0,0,0,4.11-.4c3.55-1,6-2.87,9.53-7.25,1-1.21,11-13.56,22.28-27.44s20.75-25.64,21-26.11a8,8,0,0,0,1-4.74,7.86,7.86,0,0,0-1.34-4.46c-1-1.46-44-54.35-45.39-55.76a15.17,15.17,0,0,0-7-4.45A21.33,21.33,0,0,0,739.29,135Z"/><path class="cls-2" d="M741.9,134.74a20,20,0,0,1,4.68.47,15.17,15.17,0,0,1,7,4.45C754.93,141.07,798,194,799,195.42a7.86,7.86,0,0,1,1.34,4.46,8,8,0,0,1-1,4.74c-.25.47-9.71,12.24-21,26.11S757,257,756,258.17c-3.56,4.38-6,6.23-9.53,7.25a12.52,12.52,0,0,1-4.11.4,11.27,11.27,0,0,1-4-.4,13,13,0,0,1-9-9.27,14.91,14.91,0,0,1,0-6.84,21.19,21.19,0,0,1,3.24-6.26c.62-.83,8.24-9.89,16.93-20.14s16-19,16.24-19.37a9.25,9.25,0,0,0,.72-1.9,5.84,5.84,0,0,0-.6-4.29c-.28-.54-6.44-7.95-14.67-17.66-18.32-21.6-18.22-21.46-19.25-23-2.44-3.58-3.37-6.87-3-10.3a12.51,12.51,0,0,1,3.7-7.83,13.19,13.19,0,0,1,6.59-3.62,13,13,0,0,1,2.61-.21m0-12a23.7,23.7,0,0,0-5.27.51A25.45,25.45,0,0,0,724.26,130l0,0,0,0a24.47,24.47,0,0,0-7.13,14.84c-.78,6.32.88,12.55,4.92,18.51,1.35,2,1.35,2,17.4,20.92l2.64,3.1c5,5.89,8.53,10.11,10.81,12.87-2.77,3.32-7.12,8.48-12.5,14.82-10.77,12.72-16.62,19.69-17.39,20.72a33.42,33.42,0,0,0-5.2,10.24,27.08,27.08,0,0,0,0,13.09,24.86,24.86,0,0,0,17,17.68h.06a22.73,22.73,0,0,0,7.58.93,23.52,23.52,0,0,0,7.42-.87c6.94-2,11.23-5.92,15.53-11.21l0,0,0,0,12.84-15.81,9.38-11.55c20.84-25.6,21.66-26.86,22.3-28.08a20,20,0,0,0,2.38-10.87,19.68,19.68,0,0,0-3.43-10.72h0c-2-2.82-44.93-55.51-46.65-57.3A27,27,0,0,0,750,123.69h-.1a32,32,0,0,0-8-.93Z"/><path class="cls-3" d="M799,135a13.22,13.22,0,0,0-6.59,3.62,11.75,11.75,0,0,0-3.08,4.94c-1.45,4.58-.78,8.55,2.21,13,.62.93,8.42,10.29,17.34,20.81,9.42,11.11,16.42,19.5,16.7,20a6.25,6.25,0,0,1,0,5.91c-.28.53-6.45,7.93-14.68,17.64-18.39,21.71-18.21,21.48-19.25,23-2.17,3.2-3,5.7-3,8.81a12.84,12.84,0,0,0,9.38,12.7,11.36,11.36,0,0,0,4.06.4,12.45,12.45,0,0,0,4.1-.4,14.88,14.88,0,0,0,7.08-4.47c.78-.81,6.94-8.28,13.71-16.62,12.82-15.81,12.84-15.83,14.66-16.43a7.4,7.4,0,0,1,4.13.18,6.69,6.69,0,0,1,1.8,1.11c.46.42,6,7.12,12.32,14.91s11.9,14.69,12.43,15.34c3.79,4.66,7.89,6.65,13.25,6.42a12.25,12.25,0,0,0,9-3.82,12,12,0,0,0,3.37-5.73,16.54,16.54,0,0,0,.1-6.93,22.15,22.15,0,0,0-3.24-6.25c-.67-.87-8.35-10-17.1-20.34-9.5-11.21-16.11-19.16-16.39-19.7a4.74,4.74,0,0,1-.47-2.78,4.81,4.81,0,0,1,.44-2.73c.26-.53,6.78-8.35,16.45-19.79,8.81-10.39,16.53-19.57,17.14-20.4a23.18,23.18,0,0,0,3.17-6.16,16.54,16.54,0,0,0-.1-6.93,13,13,0,0,0-8.92-9.07,17.75,17.75,0,0,0-7.15-.28c-3.82.77-6.75,2.76-10,6.84-13.69,16.9-24.1,29.6-24.57,30a6.31,6.31,0,0,1-5.18,1.06c-2.21-.56-1.84-.16-15.26-16.71-6.85-8.43-13-15.9-13.7-16.61a15.27,15.27,0,0,0-6.84-4.27A21.33,21.33,0,0,0,799,135Z"/><path class="cls-2" d="M884.7,134.71a16.15,16.15,0,0,1,4.34.52A13,13,0,0,1,898,144.3a16.54,16.54,0,0,1,.1,6.93,23.18,23.18,0,0,1-3.17,6.16c-.61.83-8.33,10-17.14,20.4-9.67,11.44-16.19,19.26-16.45,19.79a4.81,4.81,0,0,0-.44,2.73,4.74,4.74,0,0,0,.47,2.78c.28.54,6.89,8.49,16.39,19.7,8.75,10.32,16.43,19.47,17.1,20.35a22,22,0,0,1,3.24,6.24,16.54,16.54,0,0,1-.1,6.93,12,12,0,0,1-3.37,5.73,12.25,12.25,0,0,1-9,3.82l-.81,0c-5,0-8.84-2-12.44-6.44-.53-.65-6.13-7.55-12.43-15.34s-11.86-14.49-12.32-14.91a6.69,6.69,0,0,0-1.8-1.11,7.23,7.23,0,0,0-2.47-.39,5.73,5.73,0,0,0-1.66.21c-1.82.6-1.84.62-14.66,16.43-6.77,8.34-12.93,15.81-13.71,16.62a14.88,14.88,0,0,1-7.08,4.47,12.45,12.45,0,0,1-4.1.4,11.36,11.36,0,0,1-4.06-.4,12.84,12.84,0,0,1-9.38-12.7c0-3.11.82-5.61,3-8.81,1-1.53.86-1.3,19.25-23,8.23-9.71,14.4-17.11,14.68-17.64a6.25,6.25,0,0,0,0-5.91c-.28-.53-7.28-8.92-16.7-20-8.92-10.52-16.72-19.88-17.34-20.81-3-4.45-3.66-8.42-2.21-13a11.75,11.75,0,0,1,3.08-4.94A13.22,13.22,0,0,1,799,135a12.87,12.87,0,0,1,2.6-.21,20.13,20.13,0,0,1,4.69.47,15.27,15.27,0,0,1,6.84,4.27c.68.71,6.85,8.18,13.7,16.61,13.42,16.55,13,16.15,15.26,16.71a5.92,5.92,0,0,0,1.41.17,6.35,6.35,0,0,0,3.77-1.23c.47-.35,10.88-13.05,24.57-30,3.29-4.08,6.22-6.07,10-6.84a14.8,14.8,0,0,1,2.81-.24m0-12a26.44,26.44,0,0,0-5.16.47c-8.67,1.75-13.87,7.16-17,11.07-8.35,10.32-14.87,18.3-19,23.32-1.73-2.11-3.89-4.77-6.42-7.89l-.93-1.15c-4.81-5.91-13.07-16-14.44-17.43a27,27,0,0,0-12.08-7.42h-.06a32,32,0,0,0-8-.93,23.7,23.7,0,0,0-5.27.51A25.37,25.37,0,0,0,784,130l0,0,0,0a23.93,23.93,0,0,0-6,9.72v0l0,.05c-2.54,8-1.29,15.88,3.71,23.31h0c1.13,1.64,7.23,9,18.13,21.87,6,7.07,10.2,12.08,12.82,15.23-2.31,2.78-5.85,7-10.79,12.84L798.51,217c-15.44,18.22-15.44,18.22-16.76,20.16h0l0,0c-3.53,5.22-5.09,10-5.05,15.61a24.66,24.66,0,0,0,17.8,24.08h.06a22.67,22.67,0,0,0,7.58.93,23.52,23.52,0,0,0,7.42-.87A26.76,26.76,0,0,0,822,269.21c1.84-2,13-15.74,14.32-17.32,2.92-3.6,5.34-6.58,7.21-8.87,1.9,2.31,4.3,5.24,7.06,8.64,6.3,7.79,11.91,14.7,12.44,15.35,5.86,7.21,13.18,10.87,21.75,10.87l1.29,0a24.3,24.3,0,0,0,17-7.3,24,24,0,0,0,6.44-11,28,28,0,0,0,.17-13.25v-.05l0,0a33.85,33.85,0,0,0-5.25-10.34c-1.27-1.67-13.38-16-17.52-20.88-5.74-6.76-9.8-11.61-12.36-14.71,2.45-3,6.39-7.66,12.4-14.77,2.72-3.2,16.35-19.3,17.6-21l0,0,0,0a34.84,34.84,0,0,0,5.07-10.05l0-.09,0-.09A28.22,28.22,0,0,0,909.5,141a25,25,0,0,0-16.86-17.24,28.16,28.16,0,0,0-7.94-1.07Z"/><path class="cls-1" d="M572.8,135.07c-7.2.69-15,5.59-21.21,13.35a56.28,56.28,0,0,0-6.87,10.9l-1.55,3.08-.07-7.74c-.07-8.7-.05-8.56-1.44-11.43a13.91,13.91,0,0,0-6.52-6.51,11.84,11.84,0,0,0-6.61-1.4c-2.62,0-2.8,0-4.38.58a14.2,14.2,0,0,0-9.39,10.23l-.41,1.5V251.4l.39,1.46a14.26,14.26,0,0,0,14.76,10.71,14.59,14.59,0,0,0,13.14-10.23l.43-1.24.1-22.77c.11-24.33.11-24.33,1-30,2.1-12.85,7.72-22.86,16.47-29.26a42.26,42.26,0,0,1,16.12-6.76,26.62,26.62,0,0,0,3.74-1,13.57,13.57,0,0,0,8.26-9.2,20.16,20.16,0,0,0,.09-7.51c-1.4-6.16-5.66-9.85-12.07-10.5A12.89,12.89,0,0,0,572.8,135.07Z"/><path class="cls-2" d="M574.86,134.91a17.83,17.83,0,0,1,2,.16c6.41.65,10.67,4.34,12.07,10.5a20.16,20.16,0,0,1-.09,7.51,13.57,13.57,0,0,1-8.26,9.2,26.62,26.62,0,0,1-3.74,1A42.26,42.26,0,0,0,560.68,170c-8.75,6.4-14.37,16.41-16.47,29.26-.93,5.7-.93,5.7-1,30l-.1,22.77-.43,1.24a14.59,14.59,0,0,1-13.14,10.23c-.31,0-.63,0-.94,0a14.26,14.26,0,0,1-13.82-10.74l-.39-1.46V147.63l.41-1.5a14.2,14.2,0,0,1,9.39-10.23c1.58-.55,1.76-.57,4.38-.58a11.84,11.84,0,0,1,6.61,1.4,13.91,13.91,0,0,1,6.52,6.51c1.39,2.87,1.37,2.73,1.44,11.43l.07,7.74,1.55-3.08a56.28,56.28,0,0,1,6.87-10.9c6.24-7.76,14-12.66,21.21-13.35,1.06-.11,1.57-.16,2.06-.16m0-12a29.71,29.71,0,0,0-3.14.21h-.1c-7.54.73-15.25,4.33-22.07,10.19a26.08,26.08,0,0,0-9.16-7.39,23.5,23.5,0,0,0-11.86-2.61h-.07a21,21,0,0,0-8.21,1.23A26.06,26.06,0,0,0,503.17,143l-.4,1.47-.42,1.54V253l.4,1.52.39,1.46a26.4,26.4,0,0,0,25.42,19.66c.57,0,1.14,0,1.71-.05A26.56,26.56,0,0,0,554,257.19l.41-1.19.64-1.86v-2l.1-22.78c.1-23.38.1-23.38.88-28.14,1.6-9.76,5.54-17,11.72-21.52a30.2,30.2,0,0,1,11.38-4.67,39.56,39.56,0,0,0,5.75-1.59,25.55,25.55,0,0,0,15.51-17.36,31.23,31.23,0,0,0,.18-13.2c-2.55-11.19-11-18.58-22.52-19.77H578a27.77,27.77,0,0,0-3.14-.22Z"/><path class="cls-1" d="M962.16,135.07a109.36,109.36,0,0,0-23.61,3.5,128.34,128.34,0,0,0-12.35,4.15,12.59,12.59,0,0,0-5.72,5.79,12,12,0,0,0,0,10.6,11.93,11.93,0,0,0,10.13,6.51c2.41.11,3.47-.11,8.05-1.63a72.61,72.61,0,0,1,15.95-3.56,103.15,103.15,0,0,1,16.5,0c7.51,1.14,12.83,3.52,16.84,7.5a22.12,22.12,0,0,1,5.55,9.11,28.58,28.58,0,0,1,1.43,9.58l.09,3.8-2.35-.68a109.84,109.84,0,0,0-18-3.77c-12.06-1.37-24-.86-33.33,1.43-18.35,4.48-29.2,15.19-31.79,31.37a71.85,71.85,0,0,0,0,14,36,36,0,0,0,5.39,14A36.94,36.94,0,0,0,930.62,260,51.38,51.38,0,0,0,952,265c12.37.37,23.46-2.67,32.5-8.88a50.19,50.19,0,0,0,7.54-6.4l2.77-2.8v2.95c0,3.4.21,4.59,1.14,6.48a13.41,13.41,0,0,0,8.81,6.78,18.65,18.65,0,0,0,7.87,0,13.65,13.65,0,0,0,9.29-8c1.14-2.76,1.09-.92,1-38.85-.05-37.24,0-35.62-1-41.57-2.66-15.83-10.8-27.31-23.86-33.7-7.43-3.62-15.53-5.45-26.3-6A85.81,85.81,0,0,0,962.16,135.07Zm11.46,68.75a81.65,81.65,0,0,1,19,3.75l2.78.93v5.88c0,6.52-.16,7.74-1.34,11A27.07,27.07,0,0,1,980.34,240c-9.57,4.63-22,5.36-30.88,1.81-6.49-2.6-10.63-7.28-11.81-13.35a27.59,27.59,0,0,1,0-7.7c1.89-9.82,10.22-15.67,24.22-17C963.39,203.61,971.56,203.66,973.62,203.82Z"/><path class="cls-2" d="M967.5,134.92c1.23,0,2.34.05,4.29.13,10.77.51,18.87,2.34,26.3,6,13.06,6.39,21.2,17.87,23.86,33.7,1,5.95,1,4.33,1,41.57.07,37.93.12,36.09-1,38.85a13.65,13.65,0,0,1-9.29,8,14.79,14.79,0,0,1-3.77.4,17.31,17.31,0,0,1-4.1-.43,13.42,13.42,0,0,1-8.81-6.79c-.93-1.89-1.14-3.08-1.14-6.48V246.9l-2.77,2.79a49.71,49.71,0,0,1-7.54,6.41C976,262,965.6,265,954,265l-2,0A51.38,51.38,0,0,1,930.62,260,36.94,36.94,0,0,1,915,246.79a36,36,0,0,1-5.39-14,71.85,71.85,0,0,1,0-14c2.59-16.18,13.44-26.89,31.79-31.37a86.35,86.35,0,0,1,20.19-2.18,117.9,117.9,0,0,1,13.14.75,109.84,109.84,0,0,1,18,3.77l2.35.68-.09-3.8a28.58,28.58,0,0,0-1.43-9.58,22.12,22.12,0,0,0-5.55-9.11c-4-4-9.33-6.36-16.84-7.5a69.49,69.49,0,0,0-7.94-.33c-3.28,0-6.67.11-8.56.33A72.61,72.61,0,0,0,938.69,164c-4,1.32-5.28,1.65-7.12,1.65-.29,0-.6,0-.93,0a11.93,11.93,0,0,1-10.13-6.51,12,12,0,0,1,0-10.6,12.59,12.59,0,0,1,5.72-5.79,128.34,128.34,0,0,1,12.35-4.15,109.36,109.36,0,0,1,23.61-3.5c2.64-.1,4.06-.15,5.34-.15m-5.37,109.15a42.67,42.67,0,0,0,18.21-4,27.07,27.07,0,0,0,13.77-14.67c1.18-3.23,1.32-4.45,1.34-11V208.5l-2.78-.93a81.65,81.65,0,0,0-19-3.75c-1.19-.09-4.45-.15-7.26-.15-2,0-3.84,0-4.47.1-14,1.34-22.33,7.19-24.22,17a27.59,27.59,0,0,0,0,7.7c1.18,6.07,5.32,10.75,11.81,13.35a34.45,34.45,0,0,0,12.67,2.24m5.37-121.15c-1.47,0-3,0-5.79.16a121.8,121.8,0,0,0-26.29,3.9A134.67,134.67,0,0,0,921,131.91l0,0-.05,0a24.5,24.5,0,0,0-11.18,11.24l0,.05,0,0a24,24,0,0,0,.06,21.08,23.88,23.88,0,0,0,20.33,13.24h.06l1.45,0h.52c-19.2,6.63-31.29,20.37-34.31,39.24v.06c-.61,3.89-.69,13.81,0,17.91A48.17,48.17,0,0,0,905,253.41a49.28,49.28,0,0,0,20.42,17.44A62.88,62.88,0,0,0,951.66,277c.8,0,1.59,0,2.37,0a66,66,0,0,0,35.16-9.62,26.35,26.35,0,0,0,12.47,7.31,28.63,28.63,0,0,0,7.23.85A25.67,25.67,0,0,0,1033,259.77v-.06l.1-.23C1035,255,1035,255,1035,221.1v-7.81c0-33.87,0-33.87-1.08-39.94l-.11-.63c-3.3-19.68-13.82-34.37-30.41-42.49-9-4.37-18.53-6.57-31-7.17-2-.09-3.36-.14-4.86-.14Zm-21.66,51.4a60.59,60.59,0,0,1,10.22-2c1-.12,3.68-.25,7.14-.25s5.58.12,6.19.2a26.23,26.23,0,0,1,6.47,1.72,130.06,130.06,0,0,0-14.25-.8,107.76,107.76,0,0,0-15.77,1.1ZM963,215.72c.33,0,1.38-.05,3.37-.05,3.08,0,5.68.07,6.33.12a75.56,75.56,0,0,1,10.74,1.64,8.7,8.7,0,0,1-.59,3.81,15.15,15.15,0,0,1-7.72,8,30.92,30.92,0,0,1-13,2.85,22.8,22.8,0,0,1-8.22-1.38c-3.73-1.5-4.28-3.51-4.45-4.38a20.2,20.2,0,0,1,0-3.3c.3-1.55,1.27-6.11,13.53-7.29Z"/></svg>
